<?xml version="1.0" encoding="UTF-8"?>
<!DOCTYPE svg PUBLIC "-//W3C//DTD SVG 1.1//EN" "http://www.w3.org/Graphics/SVG/1.1/DTD/svg11.dtd">
<svg xmlns="http://www.w3.org/2000/svg" xmlns:xlink="http://www.w3.org/1999/xlink" version="1.1" width="661px" height="311px" viewBox="-0.5 -0.5 661 311" style="background-color: rgb(255, 255, 255);"><defs><clipPath id="mx-clip-30-60-30-30-0"><rect x="30" y="60" width="30" height="30"/></clipPath><clipPath id="mx-clip-66-60-244-30-0"><rect x="66" y="60" width="244" height="30"/></clipPath><clipPath id="mx-clip-66-90-244-30-0"><rect x="66" y="90" width="244" height="30"/></clipPath><clipPath id="mx-clip-66-120-244-30-0"><rect x="66" y="120" width="244" height="30"/></clipPath><clipPath id="mx-clip-390-60-30-30-0"><rect x="390" y="60" width="30" height="30"/></clipPath><clipPath id="mx-clip-426-60-204-30-0"><rect x="426" y="60" width="204" height="30"/></clipPath><clipPath id="mx-clip-390-90-30-30-0"><rect x="390" y="90" width="30" height="30"/></clipPath><clipPath id="mx-clip-426-90-204-30-0"><rect x="426" y="90" width="204" height="30"/></clipPath><clipPath id="mx-clip-426-120-204-30-0"><rect x="426" y="120" width="204" height="30"/></clipPath><clipPath id="mx-clip-426-150-204-30-0"><rect x="426" y="150" width="204" height="30"/></clipPath><clipPath id="mx-clip-426-180-204-30-0"><rect x="426" y="180" width="204" height="30"/></clipPath><clipPath id="mx-clip-426-210-204-30-0"><rect x="426" y="210" width="204" height="30"/></clipPath><clipPath id="mx-clip-426-240-204-30-0"><rect x="426" y="240" width="204" height="30"/></clipPath></defs><g><path d="M 30 60 L 30 30 L 310 30 L 310 60" fill="rgb(255, 255, 255)" stroke="rgb(0, 0, 0)" stroke-miterlimit="10" pointer-events="all"/><path d="M 30 60 L 30 160 L 310 160 L 310 60" fill="none" stroke="rgb(0, 0, 0)" stroke-miterlimit="10" pointer-events="none"/><path d="M 30 60 L 310 60" fill="none" stroke="rgb(0, 0, 0)" stroke-miterlimit="10" pointer-events="none"/><path d="M 60 60 L 60 90 L 60 120 L 60 150" fill="none" stroke="rgb(0, 0, 0)" stroke-miterlimit="10" pointer-events="none"/><g fill="rgb(0, 0, 0)" font-family="Helvetica" font-weight="bold" text-anchor="middle" font-size="12px"><text x="169.5" y="49.5">status</text></g><path d="M 30 60 M 310 60 M 310 90 L 30 90" fill="none" stroke="rgb(0, 0, 0)" stroke-linecap="square" stroke-miterlimit="10" pointer-events="none"/><rect x="30" y="60" width="30" height="30" fill="none" stroke="none" pointer-events="all"/><path d="M 30 60 M 60 60 M 60 90 M 30 90" fill="none" stroke="rgb(0, 0, 0)" stroke-linecap="square" stroke-miterlimit="10" pointer-events="all"/><g fill="rgb(0, 0, 0)" font-family="Helvetica" font-weight="bold" clip-path="url(#mx-clip-30-60-30-30-0)" text-anchor="middle" font-size="12px"><text x="44.5" y="79.5">PK</text></g><rect x="60" y="60" width="250" height="30" fill="none" stroke="none" pointer-events="all"/><path d="M 60 60 M 310 60 M 310 90 M 60 90" fill="none" stroke="rgb(0, 0, 0)" stroke-linecap="square" stroke-miterlimit="10" pointer-events="all"/><g fill="rgb(0, 0, 0)" font-family="Helvetica" font-weight="bold" clip-path="url(#mx-clip-66-60-244-30-0)" font-size="12px"><text x="67.5" y="79.5">id int(11) auto_increment</text></g><path d="M 30 90 M 310 90 M 310 120 M 30 120" fill="none" stroke="rgb(0, 0, 0)" stroke-linecap="square" stroke-miterlimit="10" pointer-events="none"/><rect x="30" y="90" width="30" height="30" fill="none" stroke="none" pointer-events="all"/><path d="M 30 90 M 60 90 M 60 120 M 30 120" fill="none" stroke="rgb(0, 0, 0)" stroke-linecap="square" stroke-miterlimit="10" pointer-events="all"/><rect x="60" y="90" width="250" height="30" fill="none" stroke="none" pointer-events="all"/><path d="M 60 90 M 310 90 M 310 120 M 60 120" fill="none" stroke="rgb(0, 0, 0)" stroke-linecap="square" stroke-miterlimit="10" pointer-events="all"/><g fill="rgb(0, 0, 0)" font-family="Helvetica" clip-path="url(#mx-clip-66-90-244-30-0)" font-size="12px"><text x="67.5" y="109.5">name varchar(32) NOT NULL UNIQUE</text></g><path d="M 30 120 M 310 120 M 310 150 M 30 150" fill="none" stroke="rgb(0, 0, 0)" stroke-linecap="square" stroke-miterlimit="10" pointer-events="none"/><rect x="30" y="120" width="30" height="30" fill="none" stroke="none" pointer-events="all"/><path d="M 30 120 M 60 120 M 60 150 M 30 150" fill="none" stroke="rgb(0, 0, 0)" stroke-linecap="square" stroke-miterlimit="10" pointer-events="all"/><rect x="60" y="120" width="250" height="30" fill="none" stroke="none" pointer-events="all"/><path d="M 60 120 M 310 120 M 310 150 M 60 150" fill="none" stroke="rgb(0, 0, 0)" stroke-linecap="square" stroke-miterlimit="10" pointer-events="all"/><g fill="rgb(0, 0, 0)" font-family="Helvetica" clip-path="url(#mx-clip-66-120-244-30-0)" font-size="12px"><text x="67.5" y="139.5">label varchar(64) NOT NULL</text></g><path d="M 390 60 L 390 30 L 630 30 L 630 60" fill="rgb(255, 255, 255)" stroke="rgb(0, 0, 0)" stroke-miterlimit="10" pointer-events="all"/><path d="M 390 60 L 390 280 L 630 280 L 630 60" fill="none" stroke="rgb(0, 0, 0)" stroke-miterlimit="10" pointer-events="none"/><path d="M 390 60 L 630 60" fill="none" stroke="rgb(0, 0, 0)" stroke-miterlimit="10" pointer-events="none"/><path d="M 420 60 L 420 90 L 420 120 L 420 150 L 420 180 L 420 210 L 420 240 L 420 270" fill="none" stroke="rgb(0, 0, 0)" stroke-miterlimit="10" pointer-events="none"/><g fill="rgb(0, 0, 0)" font-family="Helvetica" font-weight="bold" text-anchor="middle" font-size="12px"><text x="509.5" y="49.5">Property</text></g><path d="M 390 60 M 630 60 M 630 90 L 390 90" fill="none" stroke="rgb(0, 0, 0)" stroke-linecap="square" stroke-miterlimit="10" pointer-events="none"/><rect x="390" y="60" width="30" height="30" fill="none" stroke="none" pointer-events="all"/><path d="M 390 60 M 420 60 M 420 90 M 390 90" fill="none" stroke="rgb(0, 0, 0)" stroke-linecap="square" stroke-miterlimit="10" pointer-events="all"/><g fill="rgb(0, 0, 0)" font-family="Helvetica" font-weight="bold" clip-path="url(#mx-clip-390-60-30-30-0)" text-anchor="middle" font-size="12px"><text x="404.5" y="79.5">PK</text></g><rect x="420" y="60" width="210" height="30" fill="none" stroke="none" pointer-events="all"/><path d="M 420 60 M 630 60 M 630 90 M 420 90" fill="none" stroke="rgb(0, 0, 0)" stroke-linecap="square" stroke-miterlimit="10" pointer-events="all"/><g fill="rgb(0, 0, 0)" font-family="Helvetica" font-weight="bold" clip-path="url(#mx-clip-426-60-204-30-0)" font-size="12px"><text x="427.5" y="79.5">id int(11) auto_increment</text></g><path d="M 390 90 M 630 90 M 630 120 L 390 120" fill="none" stroke="rgb(0, 0, 0)" stroke-linecap="square" stroke-miterlimit="10" pointer-events="none"/><rect x="390" y="90" width="30" height="30" fill="none" stroke="none" pointer-events="all"/><path d="M 390 90 M 420 90 M 420 120 M 390 120" fill="none" stroke="rgb(0, 0, 0)" stroke-linecap="square" stroke-miterlimit="10" pointer-events="all"/><g fill="rgb(0, 0, 0)" font-family="Helvetica" font-weight="bold" clip-path="url(#mx-clip-390-90-30-30-0)" text-anchor="middle" font-size="12px"><text x="404.5" y="109.5">FK</text></g><rect x="420" y="90" width="210" height="30" fill="none" stroke="none" pointer-events="all"/><path d="M 420 90 M 630 90 M 630 120 M 420 120" fill="none" stroke="rgb(0, 0, 0)" stroke-linecap="square" stroke-miterlimit="10" pointer-events="all"/><g fill="rgb(0, 0, 0)" font-family="Helvetica" font-weight="bold" clip-path="url(#mx-clip-426-90-204-30-0)" font-size="12px"><text x="427.5" y="109.5">last_status_id int(11) NOT NULL</text></g><path d="M 390 120 M 630 120 M 630 150 M 390 150" fill="none" stroke="rgb(0, 0, 0)" stroke-linecap="square" stroke-miterlimit="10" pointer-events="none"/><rect x="390" y="120" width="30" height="30" fill="none" stroke="none" pointer-events="all"/><path d="M 390 120 M 420 120 M 420 150 M 390 150" fill="none" stroke="rgb(0, 0, 0)" stroke-linecap="square" stroke-miterlimit="10" pointer-events="all"/><rect x="420" y="120" width="210" height="30" fill="none" stroke="none" pointer-events="all"/><path d="M 420 120 M 630 120 M 630 150 M 420 150" fill="none" stroke="rgb(0, 0, 0)" stroke-linecap="square" stroke-miterlimit="10" pointer-events="all"/><g fill="rgb(0, 0, 0)" font-family="Helvetica" clip-path="url(#mx-clip-426-120-204-30-0)" font-size="12px"><text x="427.5" y="139.5">address varchar(120) NOT NULL</text></g><path d="M 390 150 M 630 150 M 630 180 M 390 180" fill="none" stroke="rgb(0, 0, 0)" stroke-linecap="square" stroke-miterlimit="10" pointer-events="none"/><rect x="390" y="150" width="30" height="30" fill="none" stroke="none" pointer-events="all"/><path d="M 390 150 M 420 150 M 420 180 M 390 180" fill="none" stroke="rgb(0, 0, 0)" stroke-linecap="square" stroke-miterlimit="10" pointer-events="all"/><rect x="420" y="150" width="210" height="30" fill="none" stroke="none" pointer-events="all"/><path d="M 420 150 M 630 150 M 630 180 M 420 180" fill="none" stroke="rgb(0, 0, 0)" stroke-linecap="square" stroke-miterlimit="10" pointer-events="all"/><g fill="rgb(0, 0, 0)" font-family="Helvetica" clip-path="url(#mx-clip-426-150-204-30-0)" font-size="12px"><text x="427.5" y="169.5">city varchar(32) NOT NULL</text></g><path d="M 390 180 M 630 180 M 630 210 M 390 210" fill="none" stroke="rgb(0, 0, 0)" stroke-linecap="square" stroke-miterlimit="10" pointer-events="none"/><rect x="390" y="180" width="30" height="30" fill="none" stroke="none" pointer-events="all"/><path d="M 390 180 M 420 180 M 420 210 M 390 210" fill="none" stroke="rgb(0, 0, 0)" stroke-linecap="square" stroke-miterlimit="10" pointer-events="all"/><rect x="420" y="180" width="210" height="30" fill="none" stroke="none" pointer-events="all"/><path d="M 420 180 M 630 180 M 630 210 M 420 210" fill="none" stroke="rgb(0, 0, 0)" stroke-linecap="square" stroke-miterlimit="10" pointer-events="all"/><g fill="rgb(0, 0, 0)" font-family="Helvetica" clip-path="url(#mx-clip-426-180-204-30-0)" font-size="12px"><text x="427.5" y="199.5">price bigint(20) NOT NULL</text></g><path d="M 390 210 M 630 210 M 630 240 M 390 240" fill="none" stroke="rgb(0, 0, 0)" stroke-linecap="square" stroke-miterlimit="10" pointer-events="none"/><rect x="390" y="210" width="30" height="30" fill="none" stroke="none" pointer-events="all"/><path d="M 390 210 M 420 210 M 420 240 M 390 240" fill="none" stroke="rgb(0, 0, 0)" stroke-linecap="square" stroke-miterlimit="10" pointer-events="all"/><rect x="420" y="210" width="210" height="30" fill="none" stroke="none" pointer-events="all"/><path d="M 420 210 M 630 210 M 630 240 M 420 240" fill="none" stroke="rgb(0, 0, 0)" stroke-linecap="square" stroke-miterlimit="10" pointer-events="all"/><g fill="rgb(0, 0, 0)" font-family="Helvetica" clip-path="url(#mx-clip-426-210-204-30-0)" font-size="12px"><text x="427.5" y="229.5">description text</text></g><path d="M 390 240 M 630 240 M 630 270 M 390 270" fill="none" stroke="rgb(0, 0, 0)" stroke-linecap="square" stroke-miterlimit="10" pointer-events="none"/><rect x="390" y="240" width="30" height="30" fill="none" stroke="none" pointer-events="all"/><path d="M 390 240 M 420 240 M 420 270 M 390 270" fill="none" stroke="rgb(0, 0, 0)" stroke-linecap="square" stroke-miterlimit="10" pointer-events="all"/><rect x="420" y="240" width="210" height="30" fill="none" stroke="none" pointer-events="all"/><path d="M 420 240 M 630 240 M 630 270 M 420 270" fill="none" stroke="rgb(0, 0, 0)" stroke-linecap="square" stroke-miterlimit="10" pointer-events="all"/><g fill="rgb(0, 0, 0)" font-family="Helvetica" clip-path="url(#mx-clip-426-240-204-30-0)" font-size="12px"><text x="427.5" y="259.5">year int(4)</text></g><path d="M 310 75 L 340 75 Q 350 75 350 85 L 350 95 Q 350 105 360 105 L 390 105" fill="none" stroke="rgb(0, 0, 0)" stroke-miterlimit="10" pointer-events="stroke"/><path d="M 314 71 L 314 79" fill="none" stroke="rgb(0, 0, 0)" stroke-miterlimit="10" pointer-events="all"/><ellipse cx="378" cy="105" rx="3" ry="3" fill="#ffffff" stroke="rgb(0, 0, 0)" pointer-events="all"/><path d="M 390 101 L 382 105 L 390 109" fill="none" stroke="rgb(0, 0, 0)" stroke-miterlimit="10" pointer-events="all"/></g></svg>