<?xml version="1.0" encoding="UTF-8"?>
<!DOCTYPE svg PUBLIC "-//W3C//DTD SVG 1.1//EN" "http://www.w3.org/Graphics/SVG/1.1/DTD/svg11.dtd">
<svg xmlns="http://www.w3.org/2000/svg" xmlns:xlink="http://www.w3.org/1999/xlink" version="1.1" width="1141px" height="281px" viewBox="-0.5 -0.5 1141 281" style="background-color: rgb(255, 255, 255);"><defs><clipPath id="mx-clip-350-60-30-30-0"><rect x="350" y="60" width="30" height="30"/></clipPath><clipPath id="mx-clip-386-60-404-30-0"><rect x="386" y="60" width="404" height="30"/></clipPath><clipPath id="mx-clip-350-90-30-30-0"><rect x="350" y="90" width="30" height="30"/></clipPath><clipPath id="mx-clip-386-90-404-30-0"><rect x="386" y="90" width="404" height="30"/></clipPath><clipPath id="mx-clip-350-120-30-30-0"><rect x="350" y="120" width="30" height="30"/></clipPath><clipPath id="mx-clip-386-120-404-30-0"><rect x="386" y="120" width="404" height="30"/></clipPath><clipPath id="mx-clip-386-150-404-30-0"><rect x="386" y="150" width="404" height="30"/></clipPath><clipPath id="mx-clip-386-180-404-30-0"><rect x="386" y="180" width="404" height="30"/></clipPath><clipPath id="mx-clip-870-60-30-30-0"><rect x="870" y="60" width="30" height="30"/></clipPath><clipPath id="mx-clip-906-60-204-30-0"><rect x="906" y="60" width="204" height="30"/></clipPath><clipPath id="mx-clip-906-90-204-30-0"><rect x="906" y="90" width="204" height="30"/></clipPath><clipPath id="mx-clip-906-120-204-30-0"><rect x="906" y="120" width="204" height="30"/></clipPath><clipPath id="mx-clip-906-150-204-30-0"><rect x="906" y="150" width="204" height="30"/></clipPath><clipPath id="mx-clip-906-180-204-30-0"><rect x="906" y="180" width="204" height="30"/></clipPath><clipPath id="mx-clip-906-210-204-30-0"><rect x="906" y="210" width="204" height="30"/></clipPath><clipPath id="mx-clip-30-60-30-30-0"><rect x="30" y="60" width="30" height="30"/></clipPath><clipPath id="mx-clip-66-60-204-30-0"><rect x="66" y="60" width="204" height="30"/></clipPath><clipPath id="mx-clip-66-90-204-30-0"><rect x="66" y="90" width="204" height="30"/></clipPath><clipPath id="mx-clip-66-120-204-30-0"><rect x="66" y="120" width="204" height="30"/></clipPath><clipPath id="mx-clip-66-150-204-30-0"><rect x="66" y="150" width="204" height="30"/></clipPath><style type="text/css">@import url(https://fonts.googleapis.com/css?family=Permanent+Marker);&#xa;</style></defs><g><path d="M 270 75 L 300 75 Q 310 75 310 85 L 310 95 Q 310 105 320 105 L 350 105" fill="none" stroke="rgb(0, 0, 0)" stroke-miterlimit="10" pointer-events="stroke"/><path d="M 274 71 L 274 79" fill="none" stroke="rgb(0, 0, 0)" stroke-miterlimit="10" pointer-events="all"/><ellipse cx="338" cy="105" rx="3" ry="3" fill="#ffffff" stroke="rgb(0, 0, 0)" pointer-events="all"/><path d="M 350 101 L 342 105 L 350 109" fill="none" stroke="rgb(0, 0, 0)" stroke-miterlimit="10" pointer-events="all"/><path d="M 350 60 L 350 30 L 790 30 L 790 60" fill="rgb(255, 255, 255)" stroke="rgb(0, 0, 0)" stroke-miterlimit="10" pointer-events="all"/><path d="M 350 60 L 350 220 L 790 220 L 790 60" fill="none" stroke="rgb(0, 0, 0)" stroke-miterlimit="10" pointer-events="none"/><path d="M 350 60 L 790 60" fill="none" stroke="rgb(0, 0, 0)" stroke-miterlimit="10" pointer-events="none"/><path d="M 380 60 L 380 90 L 380 120 L 380 150 L 380 180 L 380 210" fill="none" stroke="rgb(0, 0, 0)" stroke-miterlimit="10" pointer-events="none"/><g fill="rgb(0, 0, 0)" font-family="Helvetica" font-weight="bold" text-anchor="middle" font-size="12px"><text x="569.5" y="49.5">Like History</text></g><path d="M 350 60 M 790 60 M 790 90 L 350 90" fill="none" stroke="rgb(0, 0, 0)" stroke-linecap="square" stroke-miterlimit="10" pointer-events="none"/><rect x="350" y="60" width="30" height="30" fill="none" stroke="none" pointer-events="all"/><path d="M 350 60 M 380 60 M 380 90 M 350 90" fill="none" stroke="rgb(0, 0, 0)" stroke-linecap="square" stroke-miterlimit="10" pointer-events="all"/><g fill="rgb(0, 0, 0)" font-family="Helvetica" font-weight="bold" clip-path="url(#mx-clip-350-60-30-30-0)" text-anchor="middle" font-size="12px"><text x="364.5" y="79.5">PK</text></g><rect x="380" y="60" width="410" height="30" fill="none" stroke="none" pointer-events="all"/><path d="M 380 60 M 790 60 M 790 90 M 380 90" fill="none" stroke="rgb(0, 0, 0)" stroke-linecap="square" stroke-miterlimit="10" pointer-events="all"/><g fill="rgb(0, 0, 0)" font-family="Helvetica" font-weight="bold" clip-path="url(#mx-clip-386-60-404-30-0)" font-size="12px"><text x="387.5" y="79.5">id int(11) auto_increment</text></g><path d="M 350 90 M 790 90 M 790 120 M 350 120" fill="none" stroke="rgb(0, 0, 0)" stroke-linecap="square" stroke-miterlimit="10" pointer-events="none"/><rect x="350" y="90" width="30" height="30" fill="none" stroke="none" pointer-events="all"/><path d="M 350 90 M 380 90 M 380 120 M 350 120" fill="none" stroke="rgb(0, 0, 0)" stroke-linecap="square" stroke-miterlimit="10" pointer-events="all"/><g fill="rgb(0, 0, 0)" font-family="Helvetica" font-weight="bold" clip-path="url(#mx-clip-350-90-30-30-0)" text-anchor="middle" font-size="12px"><text x="364.5" y="109.5">FK1</text></g><rect x="380" y="90" width="410" height="30" fill="none" stroke="none" pointer-events="all"/><path d="M 380 90 M 790 90 M 790 120 M 380 120" fill="none" stroke="rgb(0, 0, 0)" stroke-linecap="square" stroke-miterlimit="10" pointer-events="all"/><g fill="rgb(0, 0, 0)" font-family="Helvetica" font-weight="bold" clip-path="url(#mx-clip-386-90-404-30-0)" font-size="12px"><text x="387.5" y="109.5">user_id int(11) NOT NULL</text></g><path d="M 350 120 M 790 120 M 790 150 L 350 150" fill="none" stroke="rgb(0, 0, 0)" stroke-linecap="square" stroke-miterlimit="10" pointer-events="none"/><rect x="350" y="120" width="30" height="30" fill="none" stroke="none" pointer-events="all"/><path d="M 350 120 M 380 120 M 380 150 M 350 150" fill="none" stroke="rgb(0, 0, 0)" stroke-linecap="square" stroke-miterlimit="10" pointer-events="all"/><g fill="rgb(0, 0, 0)" font-family="Helvetica" font-weight="bold" clip-path="url(#mx-clip-350-120-30-30-0)" text-anchor="middle" font-size="12px"><text x="364.5" y="139.5">FK2</text></g><rect x="380" y="120" width="410" height="30" fill="none" stroke="none" pointer-events="all"/><path d="M 380 120 M 790 120 M 790 150 M 380 150" fill="none" stroke="rgb(0, 0, 0)" stroke-linecap="square" stroke-miterlimit="10" pointer-events="all"/><g fill="rgb(0, 0, 0)" font-family="Helvetica" font-weight="bold" clip-path="url(#mx-clip-386-120-404-30-0)" font-size="12px"><text x="387.5" y="139.5">property_id int(11) NOT NULL</text></g><path d="M 350 150 M 790 150 M 790 180 M 350 180" fill="none" stroke="rgb(0, 0, 0)" stroke-linecap="square" stroke-miterlimit="10" pointer-events="none"/><rect x="350" y="150" width="30" height="30" fill="none" stroke="none" pointer-events="all"/><path d="M 350 150 M 380 150 M 380 180 M 350 180" fill="none" stroke="rgb(0, 0, 0)" stroke-linecap="square" stroke-miterlimit="10" pointer-events="all"/><rect x="380" y="150" width="410" height="30" fill="none" stroke="none" pointer-events="all"/><path d="M 380 150 M 790 150 M 790 180 M 380 180" fill="none" stroke="rgb(0, 0, 0)" stroke-linecap="square" stroke-miterlimit="10" pointer-events="all"/><g fill="rgb(0, 0, 0)" font-family="Helvetica" clip-path="url(#mx-clip-386-150-404-30-0)" font-size="12px"><text x="387.5" y="169.5">enabled bool NOT NULL DEFAULT TRUE</text></g><path d="M 350 180 M 790 180 M 790 210 M 350 210" fill="none" stroke="rgb(0, 0, 0)" stroke-linecap="square" stroke-miterlimit="10" pointer-events="none"/><rect x="350" y="180" width="30" height="30" fill="none" stroke="none" pointer-events="all"/><path d="M 350 180 M 380 180 M 380 210 M 350 210" fill="none" stroke="rgb(0, 0, 0)" stroke-linecap="square" stroke-miterlimit="10" pointer-events="all"/><rect x="380" y="180" width="410" height="30" fill="none" stroke="none" pointer-events="all"/><path d="M 380 180 M 790 180 M 790 210 M 380 210" fill="none" stroke="rgb(0, 0, 0)" stroke-linecap="square" stroke-miterlimit="10" pointer-events="all"/><g fill="rgb(0, 0, 0)" font-family="Helvetica" clip-path="url(#mx-clip-386-180-404-30-0)" font-size="12px"><text x="387.5" y="199.5">create_date datetime NOT NULL DEFAULT CURRENT_TIMESTAMP</text></g><path d="M 870 60 L 870 30 L 1110 30 L 1110 60" fill="rgb(255, 255, 255)" stroke="rgb(0, 0, 0)" stroke-miterlimit="10" pointer-events="all"/><path d="M 870 60 L 870 250 L 1110 250 L 1110 60" fill="none" stroke="rgb(0, 0, 0)" stroke-miterlimit="10" pointer-events="none"/><path d="M 870 60 L 1110 60" fill="none" stroke="rgb(0, 0, 0)" stroke-miterlimit="10" pointer-events="none"/><path d="M 900 60 L 900 90 L 900 120 L 900 150 L 900 180 L 900 210 L 900 240" fill="none" stroke="rgb(0, 0, 0)" stroke-miterlimit="10" pointer-events="none"/><g fill="rgb(0, 0, 0)" font-family="Helvetica" font-weight="bold" text-anchor="middle" font-size="12px"><text x="989.5" y="49.5">Property</text></g><path d="M 870 60 M 1110 60 M 1110 90 L 870 90" fill="none" stroke="rgb(0, 0, 0)" stroke-linecap="square" stroke-miterlimit="10" pointer-events="none"/><rect x="870" y="60" width="30" height="30" fill="none" stroke="none" pointer-events="all"/><path d="M 870 60 M 900 60 M 900 90 M 870 90" fill="none" stroke="rgb(0, 0, 0)" stroke-linecap="square" stroke-miterlimit="10" pointer-events="all"/><g fill="rgb(0, 0, 0)" font-family="Helvetica" font-weight="bold" clip-path="url(#mx-clip-870-60-30-30-0)" text-anchor="middle" font-size="12px"><text x="884.5" y="79.5">PK</text></g><rect x="900" y="60" width="210" height="30" fill="none" stroke="none" pointer-events="all"/><path d="M 900 60 M 1110 60 M 1110 90 M 900 90" fill="none" stroke="rgb(0, 0, 0)" stroke-linecap="square" stroke-miterlimit="10" pointer-events="all"/><g fill="rgb(0, 0, 0)" font-family="Helvetica" font-weight="bold" clip-path="url(#mx-clip-906-60-204-30-0)" font-size="12px"><text x="907.5" y="79.5">id int(11) auto_increment</text></g><path d="M 870 90 M 1110 90 M 1110 120 M 870 120" fill="none" stroke="rgb(0, 0, 0)" stroke-linecap="square" stroke-miterlimit="10" pointer-events="none"/><rect x="870" y="90" width="30" height="30" fill="none" stroke="none" pointer-events="all"/><path d="M 870 90 M 900 90 M 900 120 M 870 120" fill="none" stroke="rgb(0, 0, 0)" stroke-linecap="square" stroke-miterlimit="10" pointer-events="all"/><rect x="900" y="90" width="210" height="30" fill="none" stroke="none" pointer-events="all"/><path d="M 900 90 M 1110 90 M 1110 120 M 900 120" fill="none" stroke="rgb(0, 0, 0)" stroke-linecap="square" stroke-miterlimit="10" pointer-events="all"/><g fill="rgb(0, 0, 0)" font-family="Helvetica" clip-path="url(#mx-clip-906-90-204-30-0)" font-size="12px"><text x="907.5" y="109.5">address varchar(120) NOT NULL</text></g><path d="M 870 120 M 1110 120 M 1110 150 M 870 150" fill="none" stroke="rgb(0, 0, 0)" stroke-linecap="square" stroke-miterlimit="10" pointer-events="none"/><rect x="870" y="120" width="30" height="30" fill="none" stroke="none" pointer-events="all"/><path d="M 870 120 M 900 120 M 900 150 M 870 150" fill="none" stroke="rgb(0, 0, 0)" stroke-linecap="square" stroke-miterlimit="10" pointer-events="all"/><rect x="900" y="120" width="210" height="30" fill="none" stroke="none" pointer-events="all"/><path d="M 900 120 M 1110 120 M 1110 150 M 900 150" fill="none" stroke="rgb(0, 0, 0)" stroke-linecap="square" stroke-miterlimit="10" pointer-events="all"/><g fill="rgb(0, 0, 0)" font-family="Helvetica" clip-path="url(#mx-clip-906-120-204-30-0)" font-size="12px"><text x="907.5" y="139.5">city varchar(32) NOT NULL</text></g><path d="M 870 150 M 1110 150 M 1110 180 M 870 180" fill="none" stroke="rgb(0, 0, 0)" stroke-linecap="square" stroke-miterlimit="10" pointer-events="none"/><rect x="870" y="150" width="30" height="30" fill="none" stroke="none" pointer-events="all"/><path d="M 870 150 M 900 150 M 900 180 M 870 180" fill="none" stroke="rgb(0, 0, 0)" stroke-linecap="square" stroke-miterlimit="10" pointer-events="all"/><rect x="900" y="150" width="210" height="30" fill="none" stroke="none" pointer-events="all"/><path d="M 900 150 M 1110 150 M 1110 180 M 900 180" fill="none" stroke="rgb(0, 0, 0)" stroke-linecap="square" stroke-miterlimit="10" pointer-events="all"/><g fill="rgb(0, 0, 0)" font-family="Helvetica" clip-path="url(#mx-clip-906-150-204-30-0)" font-size="12px"><text x="907.5" y="169.5">price bigint(20) NOT NULL</text></g><path d="M 870 180 M 1110 180 M 1110 210 M 870 210" fill="none" stroke="rgb(0, 0, 0)" stroke-linecap="square" stroke-miterlimit="10" pointer-events="none"/><rect x="870" y="180" width="30" height="30" fill="none" stroke="none" pointer-events="all"/><path d="M 870 180 M 900 180 M 900 210 M 870 210" fill="none" stroke="rgb(0, 0, 0)" stroke-linecap="square" stroke-miterlimit="10" pointer-events="all"/><rect x="900" y="180" width="210" height="30" fill="none" stroke="none" pointer-events="all"/><path d="M 900 180 M 1110 180 M 1110 210 M 900 210" fill="none" stroke="rgb(0, 0, 0)" stroke-linecap="square" stroke-miterlimit="10" pointer-events="all"/><g fill="rgb(0, 0, 0)" font-family="Helvetica" clip-path="url(#mx-clip-906-180-204-30-0)" font-size="12px"><text x="907.5" y="199.5">description text</text></g><path d="M 870 210 M 1110 210 M 1110 240 M 870 240" fill="none" stroke="rgb(0, 0, 0)" stroke-linecap="square" stroke-miterlimit="10" pointer-events="none"/><rect x="870" y="210" width="30" height="30" fill="none" stroke="none" pointer-events="all"/><path d="M 870 210 M 900 210 M 900 240 M 870 240" fill="none" stroke="rgb(0, 0, 0)" stroke-linecap="square" stroke-miterlimit="10" pointer-events="all"/><rect x="900" y="210" width="210" height="30" fill="none" stroke="none" pointer-events="all"/><path d="M 900 210 M 1110 210 M 1110 240 M 900 240" fill="none" stroke="rgb(0, 0, 0)" stroke-linecap="square" stroke-miterlimit="10" pointer-events="all"/><g fill="rgb(0, 0, 0)" font-family="Helvetica" clip-path="url(#mx-clip-906-210-204-30-0)" font-size="12px"><text x="907.5" y="229.5">year int(4)</text></g><path d="M 30 60 L 30 30 L 270 30 L 270 60" fill="rgb(255, 255, 255)" stroke="rgb(0, 0, 0)" stroke-miterlimit="10" pointer-events="all"/><path d="M 30 60 L 30 190 L 270 190 L 270 60" fill="none" stroke="rgb(0, 0, 0)" stroke-miterlimit="10" pointer-events="none"/><path d="M 30 60 L 270 60" fill="none" stroke="rgb(0, 0, 0)" stroke-miterlimit="10" pointer-events="none"/><path d="M 60 60 L 60 90 L 60 120 L 60 150 L 60 180" fill="none" stroke="rgb(0, 0, 0)" stroke-miterlimit="10" pointer-events="none"/><g fill="rgb(0, 0, 0)" font-family="Helvetica" font-weight="bold" text-anchor="middle" font-size="12px"><text x="149.5" y="49.5">User</text></g><path d="M 30 60 M 270 60 M 270 90 L 30 90" fill="none" stroke="rgb(0, 0, 0)" stroke-linecap="square" stroke-miterlimit="10" pointer-events="none"/><rect x="30" y="60" width="30" height="30" fill="none" stroke="none" pointer-events="all"/><path d="M 30 60 M 60 60 M 60 90 M 30 90" fill="none" stroke="rgb(0, 0, 0)" stroke-linecap="square" stroke-miterlimit="10" pointer-events="all"/><g fill="rgb(0, 0, 0)" font-family="Helvetica" font-weight="bold" clip-path="url(#mx-clip-30-60-30-30-0)" text-anchor="middle" font-size="12px"><text x="44.5" y="79.5">PK</text></g><rect x="60" y="60" width="210" height="30" fill="none" stroke="none" pointer-events="all"/><path d="M 60 60 M 270 60 M 270 90 M 60 90" fill="none" stroke="rgb(0, 0, 0)" stroke-linecap="square" stroke-miterlimit="10" pointer-events="all"/><g fill="rgb(0, 0, 0)" font-family="Helvetica" font-weight="bold" clip-path="url(#mx-clip-66-60-204-30-0)" font-size="12px"><text x="67.5" y="79.5">id int(11) auto_increment</text></g><path d="M 30 90 M 270 90 M 270 120 M 30 120" fill="none" stroke="rgb(0, 0, 0)" stroke-linecap="square" stroke-miterlimit="10" pointer-events="none"/><rect x="30" y="90" width="30" height="30" fill="none" stroke="none" pointer-events="all"/><path d="M 30 90 M 60 90 M 60 120 M 30 120" fill="none" stroke="rgb(0, 0, 0)" stroke-linecap="square" stroke-miterlimit="10" pointer-events="all"/><rect x="60" y="90" width="210" height="30" fill="none" stroke="none" pointer-events="all"/><path d="M 60 90 M 270 90 M 270 120 M 60 120" fill="none" stroke="rgb(0, 0, 0)" stroke-linecap="square" stroke-miterlimit="10" pointer-events="all"/><g fill="rgb(0, 0, 0)" font-family="Helvetica" clip-path="url(#mx-clip-66-90-204-30-0)" font-size="12px"><text x="67.5" y="109.5">name varchar(50) NOT NULL</text></g><path d="M 30 120 M 270 120 M 270 150 M 30 150" fill="none" stroke="rgb(0, 0, 0)" stroke-linecap="square" stroke-miterlimit="10" pointer-events="none"/><rect x="30" y="120" width="30" height="30" fill="none" stroke="none" pointer-events="all"/><path d="M 30 120 M 60 120 M 60 150 M 30 150" fill="none" stroke="rgb(0, 0, 0)" stroke-linecap="square" stroke-miterlimit="10" pointer-events="all"/><rect x="60" y="120" width="210" height="30" fill="none" stroke="none" pointer-events="all"/><path d="M 60 120 M 270 120 M 270 150 M 60 150" fill="none" stroke="rgb(0, 0, 0)" stroke-linecap="square" stroke-miterlimit="10" pointer-events="all"/><g fill="rgb(0, 0, 0)" font-family="Helvetica" clip-path="url(#mx-clip-66-120-204-30-0)" font-size="12px"><text x="67.5" y="139.5">address varchar(200) NOT NULL</text></g><path d="M 30 150 M 270 150 M 270 180 M 30 180" fill="none" stroke="rgb(0, 0, 0)" stroke-linecap="square" stroke-miterlimit="10" pointer-events="none"/><rect x="30" y="150" width="30" height="30" fill="none" stroke="none" pointer-events="all"/><path d="M 30 150 M 60 150 M 60 180 M 30 180" fill="none" stroke="rgb(0, 0, 0)" stroke-linecap="square" stroke-miterlimit="10" pointer-events="all"/><rect x="60" y="150" width="210" height="30" fill="none" stroke="none" pointer-events="all"/><path d="M 60 150 M 270 150 M 270 180 M 60 180" fill="none" stroke="rgb(0, 0, 0)" stroke-linecap="square" stroke-miterlimit="10" pointer-events="all"/><g fill="rgb(0, 0, 0)" font-family="Helvetica" clip-path="url(#mx-clip-66-150-204-30-0)" font-size="12px"><text x="67.5" y="169.5">phone varchar(10) NOT NULL</text></g><path d="M 870 75 L 840 75 Q 830 75 830 85 L 830 125 Q 830 135 820 135 L 790 135" fill="none" stroke="rgb(0, 0, 0)" stroke-miterlimit="10" pointer-events="stroke"/><path d="M 866 79 L 866 71" fill="none" stroke="rgb(0, 0, 0)" stroke-miterlimit="10" pointer-events="all"/><ellipse cx="802" cy="135" rx="3" ry="3" fill="#ffffff" stroke="rgb(0, 0, 0)" pointer-events="all"/><path d="M 790 139 L 798 135 L 790 131" fill="none" stroke="rgb(0, 0, 0)" stroke-miterlimit="10" pointer-events="all"/></g></svg>